<svg xmlns="http://www.w3.org/2000/svg" width="349" height="120" fill="none" viewBox="0 0 349 120"><path fill="#7C3AED" d="M3.36 1.7h28.38v8.4H13.08v10.32h15.66v8.4H13.08V48.5H3.36V1.7Zm49.73 47.58c-12.12 0-17.82-6.78-17.82-22.98v-2.4C35.27 7.7 40.97.92 53.09.92 65.27.92 70.97 7.7 70.97 23.9v2.4c0 16.2-5.7 22.98-17.88 22.98Zm-.24-8.4h.54c6 0 7.68-5.22 7.68-14.58v-2.4c0-9.36-1.68-14.58-7.68-14.58h-.54c-6 0-7.74 5.22-7.74 14.58v2.4c0 9.36 1.74 14.58 7.74 14.58Zm33.53-9.18v16.8h-9.72V1.7h15.36c7.62 0 16.261 1.98 16.261 14.4v1.2c0 7.56-3.18 11.28-7.38 13.02l7.38 18.18h-10.5l-6.42-16.8h-4.98Zm0-8.4h6.06c2.64 0 6-1.02 6-6.3v-.6c0-5.28-3.36-6.3-6-6.3h-6.06v13.2Z"/><path fill="#000" d="M145.339 34.16V48.5h-9.72V34.16L122.179 1.7h10.62l7.68 20.46 7.62-20.46h10.62l-13.38 32.46Zm32.438 15.12c-12.12 0-17.82-6.78-17.82-22.98v-2.4c0-16.2 5.7-22.98 17.82-22.98 12.18 0 17.88 6.78 17.88 22.98v2.4c0 16.2-5.7 22.98-17.88 22.98Zm-.24-8.4h.54c6 0 7.68-5.22 7.68-14.58v-2.4c0-9.36-1.68-14.58-7.68-14.58h-.54c-6 0-7.74 5.22-7.74 14.58v2.4c0 9.36 1.74 14.58 7.74 14.58Zm40.311 8.4c-12.72 0-16.8-5.4-16.8-15.6V1.7h9.72v31.68c0 4.98 1.56 7.5 7.08 7.5s7.14-2.52 7.14-7.5V1.7h9.72v31.98c0 10.2-4.14 15.6-16.86 15.6Zm41.465-39.18v38.4h-9.72V10.1h-10.8V1.7h31.38v8.4h-10.86Zm38.559-8.4h9.72v46.8h-9.72V28.82h-13.62V48.5h-9.72V1.7h9.72v18.72h13.62V1.7Zm30.485 27.24c-10.2-1.38-15-4.98-15-13.44v-.66c0-8.46 5.82-13.92 16.5-13.92 11.52 0 16.56 5.1 16.56 16.08v1.26h-9.72c0-6.12-1.86-8.94-6.78-8.94h-.54c-3.9 0-6.18 2.16-6.18 5.16v.3c0 3.42 1.38 5.22 8.22 6.12 10.2 1.38 15.36 4.86 15.36 13.56v.6c0 9-5.94 14.22-16.92 14.22-11.04 0-16.86-4.92-16.86-16.2v-.54h9.72c0 5.88 2.4 8.34 6.9 8.34h.54c4.5 0 6.72-2.4 6.72-5.52v-.3c0-3.36-1.74-5.22-8.52-6.12Z"/><path fill="#7C3AED" d="M3.752 66.24h17.152c8.174 0 16.817 2.211 16.817 14.472v1.34c0 4.757-2.077 7.705-5.092 9.447 3.752 1.809 6.432 5.025 6.432 10.653v1.34c0 12.73-9.179 15.008-17.621 15.008H3.752V66.24Zm18.023 30.284h-7.169v12.596h7.169c3.015 0 6.298-1.273 6.298-6.03v-.603c0-4.757-3.283-5.963-6.298-5.963Zm-.938-20.904h-6.231v11.457h6.231c2.814 0 5.896-1.005 5.896-5.293v-.871c0-4.288-3.082-5.293-5.896-5.293Zm46.716 26.867V118.5H56.7v-16.013L41.691 66.24h11.86l8.575 22.847 8.51-22.847h11.858l-14.94 36.247Z"/><path fill="#000" d="M121.729 102.487V118.5h-10.854v-16.013L95.867 66.24h11.859l8.576 22.847 8.509-22.847h11.859l-14.941 36.247Zm36.222 16.884c-13.534 0-19.899-7.571-19.899-25.661v-2.68c0-18.09 6.365-25.661 19.899-25.661 13.601 0 19.966 7.571 19.966 25.661v2.68c0 18.09-6.365 25.661-19.966 25.661Zm-.268-9.38h.603c6.7 0 8.576-5.829 8.576-16.281v-2.68c0-10.452-1.876-16.281-8.576-16.281h-.603c-6.7 0-8.643 5.829-8.643 16.281v2.68c0 10.452 1.943 16.281 8.643 16.281Zm45.015 9.38c-14.204 0-18.76-6.03-18.76-17.42V66.24h10.854v35.376c0 5.561 1.742 8.375 7.906 8.375s7.973-2.814 7.973-8.375V66.24h10.854v35.711c0 11.39-4.623 17.42-18.827 17.42ZM249 75.62v42.88h-10.854V75.62h-12.06v-9.38h35.041v9.38H249Zm43.057-9.38h10.854v52.26h-10.854V96.524h-15.209V118.5h-10.854V66.24h10.854v20.904h15.209V66.24Zm34.042 30.418c-11.39-1.541-16.75-5.561-16.75-15.008v-.737c0-9.447 6.499-15.544 18.425-15.544 12.864 0 18.492 5.695 18.492 17.956v1.407h-10.854c0-6.834-2.077-9.983-7.571-9.983h-.603c-4.355 0-6.901 2.412-6.901 5.762v.335c0 3.819 1.541 5.829 9.179 6.834 11.39 1.541 17.152 5.427 17.152 15.142v.67c0 10.05-6.633 15.879-18.894 15.879-12.328 0-18.827-5.494-18.827-18.09v-.603h10.854c0 6.566 2.68 9.313 7.705 9.313h.603c5.025 0 7.504-2.68 7.504-6.164v-.335c0-3.752-1.943-5.829-9.514-6.834Z"/></svg>