<svg xmlns="http://www.w3.org/2000/svg" width="201" height="249" fill="none" viewBox="0 0 201 249"><path fill="#E6E6E6" d="M137.817 220.457c-2.148-2.993-5.055-5.182-8.711-6.002-3.187-.715-6.465-.593-9.705-.568l-40.97.314c-3.508.027-6.873 3.052-6.71 6.677.162 3.594 2.95 6.706 6.71 6.677l36.004-.277c2.829-.021 5.66-.072 8.49-.063.635.002 1.268.036 1.903.043.154.002.265 0 .343-.003l.062.018c.331.091.671.153 1.004.239-.117.003.216.21.383.28.023.045.072.125.154.248.114.213.451.859.465.839a29.738 29.738 0 0 1 1.253 3.92c.78 2.94.951 3.555 1.063 6.314.142 3.485 2.985 6.843 6.71 6.677 3.514-.157 6.862-2.939 6.71-6.677-.256-6.299-1.367-13.374-5.158-18.656Z"/><path fill="#E6E6E6" d="M80.84 235.524c-.77-4.641-1.525-9.284-2.31-13.921-.795-4.705-2.42-9.013-6.1-12.1-.983-.825-2.003-1.596-3.026-2.363-.36-.27-.72-.541-1.075-.817l-.053-.041-.15-.126a64.264 64.264 0 0 1-4.426-4.074 62.258 62.258 0 0 1-4.443-5.028l-.476-.609c-.158-.216-.447-.608-.495-.676-.326-.458-.645-.92-.96-1.386a65.086 65.086 0 0 1-5.53-10.063 50.69 50.69 0 0 1-.447-1.051l-.157-.429c-.311-.85-.621-1.7-.906-2.561a62.715 62.715 0 0 1-2.386-9.818c-.013-.08-.088-.603-.133-.899-.032-.297-.093-.823-.101-.904a65.403 65.403 0 0 1-.2-10.671 69.75 69.75 0 0 1 .291-3.303l.019-.169.026-.174a66.235 66.235 0 0 1 2.85-11.779c.16-.462.324-.923.493-1.382a70.27 70.27 0 0 0 .502-1.302c2.011-4.728 5.3-9.037 5.305-14.408.003-3.636-3.089-7.119-6.71-6.95a6.987 6.987 0 0 0-4.767 2.126 6.922 6.922 0 0 0-1.943 4.824l-.001.219-.087.292c-.393.847-.873 1.653-1.303 2.48-1.179 2.263-2.185 4.601-3.14 6.972a66.459 66.459 0 0 0-3.578 11.947 75.61 75.61 0 0 0-.406 27.14c2.602 15.779 11.182 30.883 23.11 41.036a94.28 94.28 0 0 0 4.503 3.587c.212.16 1.091.849.705.515.831.706 1.181 1.061 1.395 1.581l.13.506c.15.586.293 1.171.412 1.766 1.038 5.196 1.76 10.479 2.627 15.708.596 3.593 5.042 5.932 8.254 4.855 3.74-1.254 5.325-4.7 4.687-8.55Z"/><path fill="#3F3D56" d="M138.496 249a10.67 10.67 0 0 1-7.524-3.073c-2-1.976-3.131-4.66-3.145-7.464v-7.616c-8.014.893-35.455.686-43.321-.571v7.883a10.59 10.59 0 0 1-3.153 7.455 10.695 10.695 0 0 1-7.516 3.081 10.695 10.695 0 0 1-7.516-3.081 10.59 10.59 0 0 1-3.153-7.455v-15.478a68.33 68.33 0 0 1-25.728-24.946 67.888 67.888 0 0 1-9.5-34.471c0-20.794 9.471-40.191 25.984-53.219a69.003 69.003 0 0 1 37.46-14.677 71.661 71.661 0 0 1 5.552-.219c6.438 0 35.487.99 42.775 3.076l16.619-16.408a1.745 1.745 0 0 1 1.908-.378 1.71 1.71 0 0 1 1.084 1.605v2.609l3.236-3.19a1.742 1.742 0 0 1 1.907-.378 1.705 1.705 0 0 1 1.085 1.605v29.154a67.903 67.903 0 0 1 18.504 27.402 67.61 67.61 0 0 1 3.334 32.846 67.746 67.746 0 0 1-12.624 30.53 68.187 68.187 0 0 1-25.599 21v13.841a10.566 10.566 0 0 1-3.145 7.464 10.67 10.67 0 0 1-7.524 3.073Zm-9.83-19.099v8.562a9.756 9.756 0 0 0 2.907 6.865 9.851 9.851 0 0 0 6.923 2.837 9.855 9.855 0 0 0 6.923-2.837 9.756 9.756 0 0 0 2.907-6.865v-14.368l.239-.113a68.032 68.032 0 0 0 27.902-24.279 66.633 66.633 0 0 0 10.258-45.32 66.8 66.8 0 0 0-21.875-41.042l-.139-.124V83.691a.872.872 0 0 0-.563-.833.906.906 0 0 0-.998.197l-4.667 4.599v-4.61a.872.872 0 0 0-.563-.833.906.906 0 0 0-1 .199l-16.975 16.76-.241-.076c-6.775-2.11-36.281-3.11-42.768-3.11-1.806 0-3.652.073-5.486.216a68.162 68.162 0 0 0-37.005 14.499c-16.311 12.868-25.666 32.027-25.666 52.565a67.06 67.06 0 0 0 9.446 34.153A67.494 67.494 0 0 0 63.79 222.07l.217.119v15.97a9.758 9.758 0 0 0 2.907 6.864 9.855 9.855 0 0 0 6.923 2.836 9.855 9.855 0 0 0 6.922-2.836 9.758 9.758 0 0 0 2.908-6.864v-8.883l.497.093c7.069 1.324 36.834 1.532 44.028.594l.474-.062Z"/><path fill="#6C63FF" d="M81.641 49.706 35.2 63.594a5.816 5.816 0 0 0-3.447 2.805 5.767 5.767 0 0 0-.447 4.408 5.799 5.799 0 0 0 2.815 3.433 5.848 5.848 0 0 0 4.43.45l40.641-12.156.851-.255a28.067 28.067 0 0 1 3.477-12.46 2.594 2.594 0 0 0-.839-.217 2.682 2.682 0 0 0-1.04.105Z"/><path fill="#2F2E41" d="M37.747 77.65a2.95 2.95 0 0 1-1.716-.555c-.5-.36-.873-.866-1.067-1.448l-2.904-8.72a2.907 2.907 0 0 1 .867-3.129c.291-.25.63-.442.996-.562L71.722 50.77a2.95 2.95 0 0 1 3.144.863c.252.29.445.627.566.99l2.904 8.72c.242.718.193 1.5-.135 2.182a2.92 2.92 0 0 1-1.73 1.51L38.675 77.501a2.95 2.95 0 0 1-.927.15Z"/><path fill="#3F3D56" d="M108.536 34.22a29.447 29.447 0 0 0-20.434 8.245A29.156 29.156 0 0 0 79.18 63.43a29.107 29.107 0 0 0 4.947 16.228 29.325 29.325 0 0 0 13.175 10.759 29.493 29.493 0 0 0 16.961 1.662 29.407 29.407 0 0 0 15.031-7.994 29.172 29.172 0 0 0 8.034-14.956 29.08 29.08 0 0 0-1.671-16.877 29.24 29.24 0 0 0-10.812-13.11 29.459 29.459 0 0 0-16.309-4.922Zm0 57.587a28.62 28.62 0 0 1-20.157-8.32 28.334 28.334 0 0 1-8.36-20.056 28.283 28.283 0 0 1 5.386-16.592 28.5 28.5 0 0 1 13.027-9.94 28.65 28.65 0 0 1 16.376-1.147 28.551 28.551 0 0 1 14.298 8.028 28.32 28.32 0 0 1 7.481 14.541 28.244 28.244 0 0 1-1.817 16.236 28.406 28.406 0 0 1-10.512 12.548 28.618 28.618 0 0 1-15.722 4.702Z"/><path fill="#E6E6E6" d="M133.279 63.431c0 6.53-2.607 12.792-7.247 17.41a24.808 24.808 0 0 1-17.496 7.21 24.805 24.805 0 0 1-17.496-7.21 24.558 24.558 0 0 1-7.14-19.718 24.58 24.58 0 0 1 8.413-16.283 24.82 24.82 0 0 1 17.383-6.003 24.795 24.795 0 0 1 16.74 7.597 24.552 24.552 0 0 1 6.842 16.996Z"/><path fill="#6C63FF" d="M115.904 65.067a5.89 5.89 0 0 0-2.294-1.807 22.342 22.342 0 0 0-3.447-1.127v-6.701a9.83 9.83 0 0 1 4.902 2.224l1.368-2.9a9.065 9.065 0 0 0-2.668-1.64 13.155 13.155 0 0 0-3.384-.864v-3.397h-3.166v3.43a8.698 8.698 0 0 0-3.46 1.156 6.863 6.863 0 0 0-2.345 2.287 5.735 5.735 0 0 0-.834 3.042 5.183 5.183 0 0 0 .96 3.255 6.082 6.082 0 0 0 2.391 1.886 22.17 22.17 0 0 0 3.506 1.156v6.422a10.509 10.509 0 0 1-5.834-2.316l-1.367 2.904a10.33 10.33 0 0 0 3.12 1.761 14.39 14.39 0 0 0 3.863.802v3.367h3.166v-3.43a8.21 8.21 0 0 0 4.701-2.145 5.652 5.652 0 0 0 1.753-4.215 5.008 5.008 0 0 0-.931-3.15Zm-8.471-3.643a6.083 6.083 0 0 1-2.11-1.127 2.22 2.22 0 0 1-.746-1.744 2.796 2.796 0 0 1 .763-2.007 3.865 3.865 0 0 1 2.093-1.08v5.958Zm4.718 8.88a3.595 3.595 0 0 1-1.988 1.03V65.81c.723.193 1.399.53 1.988.989a1.94 1.94 0 0 1 .683 1.544 2.833 2.833 0 0 1-.683 1.96Z"/><path fill="#2F2E41" d="M39.095 112.99a2.957 2.957 0 0 1-1.791-.608 2.933 2.933 0 0 1-1.05-1.568l-1.581-5.955a2.91 2.91 0 0 1 .302-2.213 2.933 2.933 0 0 1 1.784-1.355L86.64 88.175a2.955 2.955 0 0 1 2.225.304 2.929 2.929 0 0 1 1.361 1.777l1.34 5.045-.252.019a67.365 67.365 0 0 0-35.272 13.3l-.073.035-16.129 4.239a2.925 2.925 0 0 1-.745.096Z"/><path fill="#3F3D56" d="M30.834 142.403a41.266 41.266 0 0 1-16.407-6.172 40.05 40.05 0 0 1-6.783-5.52c-2.024-2.055-3.961-4.391-4.964-7.127a10.508 10.508 0 0 1 .139-7.832 10.18 10.18 0 0 1 5.522-5.478c2.512-.996 5.547-1.103 7.992-.011a7.157 7.157 0 0 1 2.92 2.339c.348.472.605 1.004.76 1.568.143.512.156 1.051.037 1.569a3.777 3.777 0 0 1-2.002 2.388 10.123 10.123 0 0 1-3.418 1.037c-1.2.163-2.923.311-3.887-.647a1.94 1.94 0 0 1-.458-.672 1.295 1.295 0 0 1-.073-.608c-.014.09.059-.197.055-.186-.016.043-.082.146.012-.013.03-.053.062-.103.098-.152-.032.041-.102.11.023-.008a.823.823 0 0 1 .383-.235c.058-.017.117-.03.176-.046.148-.04-.148.002.003-.003.059-.002.118 0 .176-.003.149-.006-.146-.04-.004-.004.055.013.11.027.164.044.119.037-.083-.086-.003.006.094.108-.099-.105.008-.001.053.052.103.107.15.165a.992.992 0 0 0 1.39 0 .998.998 0 0 0 0-1.383c-.97-1.196-2.884-.901-3.865.11-1.25 1.289-.755 3.331.462 4.456 1.377 1.273 3.327 1.361 5.099 1.148a12.561 12.561 0 0 0 4.306-1.211 6.02 6.02 0 0 0 2.946-3.167 5.47 5.47 0 0 0-.443-4.493c-1.564-2.926-4.803-4.426-8.004-4.686a12.57 12.57 0 0 0-4.876.583 12.524 12.524 0 0 0-4.274 2.406 12.56 12.56 0 0 0-4.147 8.377c-.28 3.337 1.022 6.577 2.919 9.27a35.37 35.37 0 0 0 7.037 7.241 43.062 43.062 0 0 0 17.954 8.426c.78.16 1.565.298 2.354.412a1.014 1.014 0 0 0 1.21-.683.982.982 0 0 0-.687-1.204Z"/><path fill="#CCC" d="M124.516 99.892a325.34 325.34 0 0 0-25.638.649c-2.911.189-5.43 1.213-5.43 2.934 0 1.439 2.499 3.125 5.43 2.935 8.515-.553 17.061-.77 25.638-.65 6.993.099 6.989-5.77 0-5.868Z"/><path fill="#3F3D56" d="M111.845 105.47c-.926 0-22.69-.035-22.69-3.026 0-2.991 21.764-3.026 22.69-3.026.927 0 22.691.035 22.691 3.026 0 2.991-21.764 3.026-22.691 3.026Zm-21.84-3.026c.596.907 8.596 2.191 21.84 2.191s21.244-1.284 21.84-2.191c-.596-.907-8.596-2.191-21.84-2.191s-21.244 1.284-21.84 2.191Zm90.892 81.664c4.818-.133 10.814-.299 15.433-3.657a11.805 11.805 0 0 0 3.312-3.89 11.752 11.752 0 0 0 1.352-4.916c.094-2.652-.869-4.967-2.711-6.516-2.413-2.029-5.936-2.504-9.733-1.394l3.934-28.604-2.888-.394-4.624 33.628 2.411-1.101c2.796-1.276 6.633-1.925 9.018.08a5.088 5.088 0 0 1 1.68 4.199 8.882 8.882 0 0 1-1.016 3.659 8.939 8.939 0 0 1-2.454 2.907c-3.595 2.612-8.375 2.949-13.795 3.1l.081 2.899Zm-7.984-46.511h-15.698v2.901h15.698v-2.901Z"/><path fill="#2F2E41" d="M46.199 126.329a2.95 2.95 0 0 1-1.904-.704 2.923 2.923 0 0 1-.992-1.765l-.958-6.085c-.12-.765.07-1.546.53-2.172a2.942 2.942 0 0 1 1.916-1.166l50.967-7.946c.77-.119 1.555.07 2.183.526a2.926 2.926 0 0 1 1.172 1.908l.958 6.084a2.915 2.915 0 0 1-.529 2.173 2.942 2.942 0 0 1-1.917 1.166l-50.967 7.946a3.07 3.07 0 0 1-.46.035Z"/><path fill="#6C63FF" d="M25.106 55.022c11.812 0 21.388-9.529 21.388-21.282 0-11.754-9.576-21.282-21.388-21.282-11.812 0-21.388 9.528-21.388 21.282 0 11.753 9.576 21.282 21.388 21.282Z"/><path fill="#2F2E41" d="M37.216 39.246a5.076 5.076 0 0 0 1.831-1.116 3.392 3.392 0 0 0 .946-2.706 2.275 2.275 0 0 0-1.054-1.737c-.774-.474-1.797-.456-2.83.02L35.99 25.4l-.838.012.14 9.766.638-.417c.74-.482 1.804-.832 2.57-.363a1.47 1.47 0 0 1 .66 1.122 2.553 2.553 0 0 1-.704 2.017c-.909.898-2.255 1.198-3.79 1.474l.148.82c.817-.123 1.62-.319 2.402-.585Zm7.411-14.429-4.467.673.126.825 4.466-.673-.125-.825ZM30.529 26.94l-4.466.674.125.825 4.466-.673-.125-.825Zm8.711 99.017a3.792 3.792 0 0 1-3.537-2.443L20.957 84.218a19.329 19.329 0 0 1 .535-14.832 19.476 19.476 0 0 1 10.907-10.123l11.99-4.455a3.774 3.774 0 0 1 2.885.1 3.704 3.704 0 0 1 1.96 2.08l27.317 51.32a3.742 3.742 0 0 1-.948 4.081c-.363.339-.79.602-1.256.776l-33.788 12.554a3.781 3.781 0 0 1-1.319.238Z"/><path fill="#E6E6E6" d="m40.752 56.16 27.103 36.064-18.34-35.686a3.369 3.369 0 0 0-1.749-1.905 3.4 3.4 0 0 0-2.59-.117l-4.424 1.644Z"/><path fill="#6C63FF" d="m83.667 83.549-48.394-3.102a5.842 5.842 0 0 1-3.998-1.956 5.786 5.786 0 0 1-1.436-4.196 5.769 5.769 0 0 1 1.966-3.978 5.83 5.83 0 0 1 4.216-1.43l48.394 3.102a2.738 2.738 0 0 1 1.872.916 2.709 2.709 0 0 1 .673 1.965l-.397 6.146a2.708 2.708 0 0 1-.921 1.863 2.735 2.735 0 0 1-1.975.67Z"/><path fill="#2F2E41" d="M70.735 85.537c-.063 0-.127-.002-.192-.006l-39.738-2.547a2.947 2.947 0 0 1-2.016-.986 2.917 2.917 0 0 1-.725-2.117l.68-10.498a2.91 2.91 0 0 1 .991-2.006 2.939 2.939 0 0 1 2.127-.72L71.6 69.202c.777.05 1.502.406 2.015.987.514.582.775 1.343.726 2.115l-.68 10.499a2.92 2.92 0 0 1-.575 1.555 2.943 2.943 0 0 1-2.35 1.178ZM24.86 19.588c2.815-2.408 6.678-.254 9.905-.631 3.087-.36 5.525-3.116 6.148-6.043.726-3.416-1.055-6.837-3.681-8.966-2.876-2.332-6.69-3.002-10.304-2.57-4.143.494-7.931 2.415-11.33 4.74a51.038 51.038 0 0 0-8.993 7.581c-2.411 2.65-4.455 5.81-5.107 9.377-.593 3.24-.14 6.833 1.785 9.579a10.14 10.14 0 0 0 3.973 3.257c1.652.806 3.413 1.383 5.013 2.295 2.418 1.38 4.77 4.24 4.012 7.216a4.08 4.08 0 0 1-.934 1.748c-.541.598-1.517-.192-.975-.791.954-1.053.916-2.457.408-3.714a6.802 6.802 0 0 0-3.034-3.32c-1.674-.952-3.523-1.54-5.24-2.408A11.32 11.32 0 0 1 2.35 33.51C.296 30.67-.318 26.973.147 23.553c.505-3.7 2.415-7.063 4.81-9.881 2.608-3.067 5.81-5.663 9.081-7.995 3.51-2.503 7.389-4.618 11.68-5.383 3.72-.664 7.752-.255 11.005 1.762 3.036 1.883 5.365 5.121 5.596 8.74a9.24 9.24 0 0 1-1.04 4.749 9.295 9.295 0 0 1-3.311 3.573 8.042 8.042 0 0 1-4.785 1.103c-1.788-.114-3.576-.658-5.375-.507-.814.05-1.59.361-2.21.888-.614.526-1.347-.492-.737-1.014Z"/></svg>