<svg width="201" height="249" viewBox="0 0 201 249" fill="none" xmlns="http://www.w3.org/2000/svg">
<path d="M137.817 220.457C135.669 217.464 132.762 215.275 129.106 214.455C125.919 213.74 122.641 213.862 119.401 213.887L78.4314 214.201C74.9226 214.228 71.5584 217.253 71.7214 220.878C71.8832 224.472 74.6703 227.584 78.4314 227.555C90.4327 227.463 102.434 227.371 114.435 227.278C117.264 227.257 120.095 227.206 122.925 227.215C123.56 227.217 124.193 227.251 124.828 227.258C124.982 227.26 125.093 227.258 125.171 227.255C125.191 227.261 125.207 227.266 125.233 227.273C125.564 227.364 125.904 227.426 126.237 227.512C126.12 227.515 126.453 227.722 126.62 227.792C126.643 227.837 126.692 227.917 126.774 228.04C126.888 228.253 127.225 228.899 127.239 228.879C127.747 230.155 128.165 231.465 128.492 232.799C129.272 235.739 129.443 236.354 129.555 239.113C129.697 242.598 132.54 245.956 136.265 245.79C139.779 245.633 143.127 242.851 142.975 239.113C142.719 232.814 141.608 225.739 137.817 220.457Z" fill="#E6E6E6"/>
<path d="M80.8397 235.524C80.0702 230.883 79.3154 226.24 78.5309 221.603C77.735 216.898 76.1093 212.59 72.4299 209.503C71.4468 208.678 70.4275 207.907 69.4038 207.14C69.0438 206.87 68.6844 206.599 68.3288 206.323C68.3075 206.307 68.2939 206.297 68.2755 206.282C68.2364 206.249 68.1895 206.209 68.1264 206.156C66.5929 204.865 65.1111 203.516 63.6996 202.082C62.4462 200.809 61.2476 199.481 60.1036 198.099C59.8178 197.754 59.5356 197.406 59.2571 197.054C59.2092 196.994 58.9512 196.662 58.7812 196.445C58.6231 196.229 58.3342 195.837 58.2857 195.769C57.9603 195.311 57.6407 194.849 57.3269 194.383C55.1898 191.197 53.3392 187.829 51.7966 184.32C51.6437 183.972 51.4943 183.622 51.3486 183.269C51.3095 183.162 51.2589 183.024 51.1917 182.84C50.8809 181.99 50.5707 181.14 50.2864 180.279C49.6826 178.451 49.1634 176.596 48.7289 174.714C48.5141 173.785 48.3208 172.851 48.1488 171.912C48.0602 171.429 47.9772 170.946 47.9 170.461C47.8873 170.381 47.812 169.858 47.7675 169.562C47.7348 169.265 47.6738 168.739 47.6656 168.658C47.6164 168.169 47.5728 167.68 47.5347 167.191C47.4489 166.089 47.3909 164.986 47.3607 163.88C47.3091 161.916 47.3444 159.951 47.4668 157.987C47.5364 156.884 47.6355 155.783 47.7575 154.684C47.7649 154.617 47.7706 154.563 47.776 154.515C47.7833 154.466 47.7919 154.41 47.8022 154.341C47.8925 153.733 47.9875 153.127 48.0938 152.523C48.4962 150.228 49.0197 147.956 49.6619 145.715C49.966 144.656 50.2963 143.605 50.6528 142.562C50.8117 142.1 50.9757 141.639 51.1447 141.18C51.1336 141.209 51.6404 139.921 51.6472 139.878C53.6581 135.15 56.9471 130.841 56.9516 125.47C56.9547 121.834 53.8632 118.351 50.2416 118.52C48.436 118.587 46.7272 119.35 45.4755 120.646C44.2238 121.943 43.5269 123.673 43.5316 125.47C43.5316 125.552 43.5312 125.622 43.531 125.689C43.4972 125.803 43.469 125.897 43.4436 125.981C43.0514 126.828 42.5711 127.634 42.1406 128.461C40.962 130.724 39.9559 133.062 39.0002 135.433C37.4357 139.296 36.2382 143.295 35.4233 147.38C33.652 156.329 33.5145 165.522 35.0174 174.52C37.619 190.299 46.1986 205.403 58.1262 215.556C59.1613 216.437 60.2216 217.289 61.292 218.123C61.7349 218.468 62.1815 218.807 62.6303 219.143C62.8425 219.303 63.7214 219.992 63.3348 219.658C64.1661 220.364 64.5161 220.719 64.7297 221.239C64.7606 221.359 64.8028 221.522 64.8599 221.745C65.0104 222.331 65.1534 222.916 65.2721 223.511C66.3103 228.707 67.0319 233.99 67.8991 239.219C68.4952 242.812 72.9409 245.151 76.1533 244.074C79.8924 242.82 81.4784 239.374 80.8397 235.524Z" fill="#E6E6E6"/>
<path d="M138.496 249C135.678 249.007 132.972 247.902 130.972 245.927C128.972 243.951 127.841 241.267 127.827 238.463V230.847C119.813 231.74 92.3717 231.533 84.5056 230.276V238.159C84.4845 240.961 83.3512 243.64 81.3527 245.614C79.3541 247.588 76.6525 248.695 73.8367 248.695C71.0209 248.695 68.3193 247.588 66.3207 245.614C64.3222 243.64 63.1889 240.961 63.1678 238.159V222.681C52.5139 216.792 43.6323 208.18 37.4397 197.735C31.2472 187.29 27.9679 175.391 27.9403 163.264C27.9403 142.47 37.4111 123.073 53.9242 110.045C64.6609 101.546 77.7059 96.4347 91.3838 95.3677C93.2403 95.2228 95.1082 95.1494 96.9357 95.1494C103.374 95.1494 132.423 96.1391 139.711 98.2255L156.33 81.817C156.574 81.5725 156.886 81.4059 157.226 81.3385C157.566 81.2711 157.918 81.306 158.238 81.4386C158.56 81.5662 158.836 81.7877 159.03 82.0742C159.223 82.3607 159.325 82.6987 159.322 83.0438V85.6527L162.558 82.4637C162.802 82.2189 163.113 82.0521 163.453 81.9846C163.793 81.9171 164.145 81.952 164.465 82.0847C164.787 82.2122 165.063 82.4338 165.257 82.7204C165.451 83.007 165.553 83.3452 165.55 83.6905V112.844C173.889 120.325 180.245 129.737 184.054 140.246C187.863 150.755 189.008 162.037 187.388 173.092C185.767 184.147 181.431 194.633 174.764 203.622C168.097 212.61 159.304 219.823 149.165 224.622V238.463C149.151 241.267 148.02 243.951 146.02 245.927C144.02 247.902 141.314 249.007 138.496 249ZM128.666 229.901V238.463C128.687 241.044 129.732 243.511 131.573 245.328C133.414 247.146 135.902 248.165 138.496 248.165C141.089 248.165 143.577 247.146 145.419 245.328C147.26 243.511 148.305 241.044 148.326 238.463V224.095L148.565 223.982C159.942 218.61 169.6 210.206 176.467 199.703C185.217 186.301 188.856 170.224 186.725 154.383C184.594 138.541 176.835 123.983 164.85 113.341L164.711 113.217V83.6905C164.714 83.5111 164.662 83.3351 164.561 83.1862C164.46 83.0373 164.316 82.9227 164.148 82.8577C163.981 82.7866 163.796 82.7675 163.618 82.8027C163.44 82.8379 163.277 82.9259 163.15 83.0552L158.483 87.6539V83.0438C158.486 82.8644 158.434 82.6884 158.333 82.5395C158.233 82.3906 158.089 82.2759 157.92 82.211C157.753 82.14 157.568 82.121 157.389 82.1565C157.211 82.192 157.047 82.2803 156.92 82.4099L139.945 99.1697L139.704 99.0945C132.929 96.9845 103.423 95.984 96.9357 95.984C95.1299 95.984 93.2841 96.0566 91.4496 96.1998C77.938 97.2538 65.0515 102.303 54.4454 110.699C38.134 123.567 28.779 142.726 28.779 163.264C28.8069 175.283 32.0687 187.076 38.2254 197.417C44.3822 207.759 53.2094 216.271 63.7901 222.07L64.0065 222.189V238.159C64.0281 240.739 65.0733 243.206 66.9145 245.023C68.7557 246.84 71.2437 247.859 73.8367 247.859C76.4297 247.859 78.9177 246.84 80.7589 245.023C82.6001 243.206 83.6453 240.739 83.6669 238.159V229.276L84.1638 229.369C91.2326 230.693 120.998 230.901 128.192 229.963L128.666 229.901Z" fill="#3F3D56"/>
<path d="M81.6413 49.7065L35.1997 63.5939C33.7226 64.0374 32.4827 65.0462 31.7526 66.3987C31.0225 67.7512 30.8618 69.3367 31.3059 70.807C31.7499 72.2773 32.7623 73.5121 34.1207 74.2401C35.4792 74.9681 37.0725 75.1298 38.5506 74.6897L79.192 62.534L80.0434 62.2794C80.2157 57.914 81.406 53.6482 83.5201 49.8192C83.2547 49.7004 82.9712 49.627 82.6813 49.6022C82.3311 49.5684 81.9777 49.6039 81.6413 49.7065Z" fill="#6C63FF"/>
<path d="M37.7474 77.6504C37.1309 77.6489 36.5305 77.4547 36.031 77.0952C35.5315 76.7357 35.1581 76.229 34.9637 75.6469L32.0596 66.9272C31.9383 66.5631 31.8903 66.1787 31.9183 65.7961C31.9463 65.4135 32.0498 65.0402 32.2228 64.6973C32.3959 64.3545 32.6351 64.049 32.9268 63.7982C33.2185 63.5474 33.557 63.3562 33.923 63.2356L71.7217 50.7711C72.0876 50.6504 72.4739 50.6026 72.8583 50.6304C73.2428 50.6583 73.618 50.7612 73.9626 50.9333C74.3071 51.1054 74.6141 51.3434 74.8662 51.6336C75.1183 51.9238 75.3105 52.2606 75.4318 52.6247L78.3359 61.3443C78.5775 62.0615 78.529 62.8441 78.2008 63.5264C77.8726 64.2087 77.2903 64.737 76.5774 64.9995C76.5425 65.0125 76.5072 65.0248 76.4716 65.0364L38.6738 77.5005C38.3751 77.5995 38.0623 77.6502 37.7474 77.6504Z" fill="#2F2E41"/>
<path d="M108.536 34.2209C100.907 34.2238 93.5785 37.1804 88.1017 42.4648C82.6249 47.7492 79.4296 54.9467 79.192 62.534C79.1836 62.8303 79.1795 63.1307 79.1795 63.4312C79.1795 69.2084 80.9012 74.8559 84.1269 79.6595C87.3526 84.4631 91.9374 88.2071 97.3015 90.4179C102.666 92.6288 108.568 93.2073 114.263 92.0802C119.957 90.9531 125.188 88.1711 129.294 84.086C133.399 80.0008 136.195 74.7961 137.328 69.1298C138.46 63.4636 137.879 57.5904 135.657 52.2529C133.435 46.9154 129.673 42.3534 124.845 39.1437C120.018 35.9341 114.342 34.2209 108.536 34.2209ZM108.536 91.8069C100.975 91.799 93.7258 88.8069 88.3795 83.4872C83.0331 78.1674 80.0261 70.9545 80.0182 63.4312C80.0182 63.0431 80.0267 62.6592 80.0434 62.2794C80.2705 56.7211 82.1346 51.3517 85.404 46.8391C88.6733 42.3264 93.2036 38.8696 98.4316 36.8983C103.66 34.9271 109.355 34.5284 114.808 35.752C120.262 36.9755 125.234 39.7672 129.106 43.78C132.979 47.7927 135.58 52.8495 136.587 58.3215C137.594 63.7935 136.962 69.4393 134.77 74.5569C132.578 79.6745 128.923 84.038 124.258 87.105C119.594 90.172 114.126 91.807 108.536 91.8069Z" fill="#3F3D56"/>
<path d="M133.279 63.4312C133.279 69.9608 130.672 76.2231 126.032 80.8402C121.391 85.4574 115.098 88.0513 108.536 88.0513C101.973 88.0513 95.6799 85.4574 91.0397 80.8402C86.3995 76.2231 83.7926 69.9608 83.7926 63.4312C83.7926 62.6509 83.8303 61.883 83.9015 61.1236C84.4978 54.8218 87.5104 48.9906 92.3138 44.8408C97.1171 40.6909 103.342 38.5414 109.697 38.8383C116.051 39.1353 122.046 41.856 126.437 46.4355C130.829 51.015 133.279 57.1015 133.279 63.4312Z" fill="#E6E6E6"/>
<path d="M115.904 65.067C115.304 64.2823 114.515 63.6609 113.61 63.2601C112.494 62.7919 111.341 62.4151 110.163 62.1334V55.4317C111.974 55.7034 113.672 56.4738 115.065 57.6559L116.433 54.7557C115.646 54.0587 114.743 53.5037 113.765 53.1158C112.681 52.6789 111.543 52.3884 110.381 52.252V48.8552H107.215V52.2854C105.992 52.422 104.813 52.8161 103.755 53.4413C102.799 54.004 101.995 54.7886 101.41 55.728C100.853 56.6448 100.564 57.6985 100.576 58.7701C100.521 59.9313 100.86 61.0773 101.536 62.0249C102.159 62.8454 102.982 63.4945 103.927 63.9111C105.061 64.3931 106.234 64.7797 107.433 65.067V71.489C105.296 71.3287 103.26 70.5204 101.599 69.1731L100.232 72.0774C101.161 72.8413 102.217 73.4373 103.352 73.8384C104.596 74.2814 105.896 74.551 107.215 74.6396V78.0071H110.381V74.577C112.14 74.3858 113.789 73.6333 115.082 72.4321C115.652 71.8886 116.102 71.2334 116.403 70.5079C116.705 69.7824 116.852 69.0025 116.835 68.2175C116.888 67.0932 116.56 65.9839 115.904 65.067ZM107.433 61.424C106.661 61.1913 105.944 60.8083 105.323 60.2973C105.077 60.0794 104.883 59.81 104.754 59.5085C104.624 59.2069 104.564 58.8806 104.577 58.5531C104.554 57.8098 104.828 57.0879 105.34 56.5459C105.907 55.9772 106.639 55.5993 107.433 55.4651V61.424ZM112.151 70.3039C111.616 70.8499 110.919 71.2111 110.163 71.3346V65.8097C110.886 66.0027 111.562 66.3391 112.151 66.7987C112.374 66.9884 112.551 67.2257 112.67 67.493C112.788 67.7604 112.844 68.0508 112.834 68.3427C112.863 69.0588 112.619 69.7595 112.151 70.3039Z" fill="#6C63FF"/>
<path d="M39.0953 112.99C38.447 112.989 37.8172 112.775 37.3035 112.382C36.7898 111.988 36.4209 111.437 36.254 110.814L34.6729 104.859C34.475 104.111 34.5836 103.315 34.9747 102.646C35.3658 101.977 36.0077 101.489 36.7594 101.291L86.64 88.1754C87.3927 87.98 88.1926 88.0891 88.8646 88.479C89.5367 88.8688 90.0262 89.5077 90.2261 90.2557L91.5655 95.3007L91.3145 95.32C78.5217 96.3098 66.2815 100.925 56.042 108.62L55.9693 108.655L39.8401 112.894C39.597 112.958 39.3467 112.99 39.0953 112.99Z" fill="#2F2E41"/>
<path d="M30.8341 142.403C24.9828 141.543 19.3868 139.438 14.4273 136.231C11.9703 134.643 9.69568 132.792 7.64436 130.711C5.61968 128.656 3.68274 126.32 2.67989 123.584C1.71501 121.052 1.76475 118.248 2.8188 115.752C3.85849 113.27 5.84451 111.301 8.34144 110.274C10.8533 109.278 13.8882 109.171 16.3328 110.263C17.4977 110.771 18.5058 111.578 19.2534 112.602C19.601 113.074 19.8584 113.606 20.0126 114.17C20.1558 114.682 20.1688 115.221 20.0505 115.739C19.9072 116.256 19.6544 116.736 19.3091 117.148C18.9638 117.56 18.534 117.894 18.0485 118.127C16.98 118.672 15.8223 119.024 14.6297 119.164C13.4302 119.327 11.7072 119.475 10.7429 118.517C10.5445 118.328 10.3883 118.099 10.2847 117.845C10.2123 117.651 10.1875 117.442 10.2124 117.237C10.1984 117.327 10.2706 117.04 10.2665 117.051C10.2513 117.094 10.1852 117.197 10.2791 117.038C10.3084 116.985 10.3411 116.935 10.3769 116.886C10.345 116.927 10.275 116.996 10.4 116.878C10.5033 116.766 10.6361 116.684 10.7834 116.643C10.8414 116.626 10.9003 116.613 10.9585 116.597C11.1065 116.557 10.8111 116.599 10.9624 116.594C11.0208 116.592 11.08 116.594 11.1382 116.591C11.2866 116.585 10.9917 116.551 11.134 116.587C11.1892 116.6 11.2439 116.614 11.2984 116.631C11.4167 116.668 11.2146 116.545 11.2948 116.637C11.3887 116.745 11.1961 116.532 11.3029 116.636C11.356 116.688 11.4061 116.743 11.4529 116.801C11.6381 116.983 11.8878 117.085 12.148 117.085C12.4082 117.085 12.6579 116.983 12.8431 116.801C13.022 116.615 13.1218 116.367 13.1218 116.109C13.1218 115.852 13.022 115.604 12.8431 115.418C11.8738 114.222 9.95906 114.517 8.97847 115.528C7.7279 116.817 8.22313 118.859 9.43958 119.984C10.8167 121.257 12.7671 121.345 14.5385 121.132C16.0355 120.989 17.4944 120.579 18.8451 119.921C20.1872 119.265 21.2368 118.136 21.7908 116.754C22.0409 116.017 22.1307 115.235 22.0544 114.46C21.978 113.685 21.7371 112.936 21.3478 112.261C19.7838 109.335 16.5453 107.835 13.3443 107.575C11.6962 107.447 10.0389 107.645 8.46831 108.158C6.89768 108.671 5.44491 109.489 4.19404 110.564C1.78306 112.724 0.298425 115.723 0.0471684 118.941C-0.232244 122.278 1.0688 125.518 2.96569 128.211C4.95151 130.947 7.32124 133.386 10.0026 135.452C15.2445 139.617 21.3932 142.502 27.9568 143.878C28.7375 144.038 29.5224 144.176 30.3115 144.29C30.5625 144.35 30.8274 144.313 31.052 144.187C31.2767 144.06 31.4443 143.852 31.5207 143.607C31.5881 143.357 31.5538 143.09 31.4254 142.865C31.2969 142.64 31.0845 142.474 30.8341 142.403Z" fill="#3F3D56"/>
<path d="M124.516 99.8916C115.943 99.7712 107.397 99.9876 98.8785 100.541C95.9667 100.73 93.4473 101.754 93.4473 103.475C93.4473 104.914 95.9466 106.6 98.8785 106.41C107.393 105.857 115.939 105.64 124.516 105.76C131.509 105.859 131.505 99.9897 124.516 99.8916Z" fill="#CCCCCC"/>
<path d="M111.845 105.47C110.919 105.47 89.1547 105.435 89.1547 102.444C89.1547 99.4528 110.919 99.4184 111.845 99.4184C112.772 99.4184 134.536 99.4528 134.536 102.444C134.536 105.435 112.772 105.47 111.845 105.47ZM90.0058 102.444C90.6013 103.351 98.6014 104.635 111.845 104.635C125.089 104.635 133.089 103.351 133.685 102.444C133.089 101.537 125.089 100.253 111.845 100.253C98.6014 100.253 90.6013 101.537 90.0058 102.444Z" fill="#3F3D56"/>
<path d="M180.897 184.108C185.715 183.975 191.711 183.809 196.33 180.451C197.706 179.41 198.836 178.083 199.642 176.561C200.447 175.04 200.909 173.362 200.994 171.645C201.088 168.993 200.125 166.678 198.283 165.129C195.87 163.1 192.347 162.625 188.55 163.735L192.484 135.131L189.596 134.737L184.972 168.365L187.383 167.264C190.179 165.988 194.016 165.339 196.401 167.344C196.987 167.868 197.443 168.52 197.734 169.248C198.026 169.976 198.144 170.761 198.081 171.543C198.01 172.821 197.664 174.069 197.065 175.202C196.466 176.335 195.629 177.326 194.611 178.109C191.016 180.721 186.236 181.058 180.816 181.209L180.897 184.108Z" fill="#3F3D56"/>
<path d="M172.913 137.597H157.215V140.498H172.913V137.597Z" fill="#3F3D56"/>
<path d="M46.1989 126.329C45.5001 126.327 44.825 126.077 44.2945 125.625C43.7639 125.172 43.4126 124.547 43.3035 123.86L42.3453 117.775C42.2256 117.01 42.4159 116.229 42.8745 115.603C43.333 114.977 44.0223 114.558 44.7912 114.437L95.7583 106.491C96.5274 106.372 97.3125 106.561 97.9414 107.017C98.5703 107.474 98.9916 108.16 99.1129 108.925L100.071 115.009C100.191 115.775 100 116.556 99.542 117.182C99.0835 117.808 98.3942 118.227 97.6253 118.348L46.6582 126.294C46.5062 126.317 46.3527 126.329 46.1989 126.329Z" fill="#2F2E41"/>
<path d="M25.1061 55.0216C36.9184 55.0216 46.4942 45.4934 46.4942 33.7398C46.4942 21.9862 36.9184 12.458 25.1061 12.458C13.2938 12.458 3.71804 21.9862 3.71804 33.7398C3.71804 45.4934 13.2938 55.0216 25.1061 55.0216Z" fill="#6C63FF"/>
<path d="M37.2157 39.2463C37.8992 39.0084 38.5237 38.6277 39.047 38.1296C39.3933 37.7745 39.6573 37.3484 39.8207 36.8811C39.984 36.4138 40.0427 35.9166 39.9926 35.4243C39.9635 35.0735 39.8533 34.7341 39.6705 34.4326C39.4878 34.1312 39.2374 33.8759 38.9391 33.6867C38.1651 33.213 37.1423 33.2309 36.1096 33.7073L35.9904 25.3999L35.1518 25.4118L35.2919 35.178L35.9303 34.7613C36.6706 34.279 37.7343 33.9292 38.4996 34.3976C38.6889 34.5216 38.8469 34.6874 38.9613 34.882C39.0757 35.0767 39.1435 35.295 39.1593 35.5199C39.1946 35.8867 39.15 36.2566 39.0287 36.6047C38.9074 36.9528 38.7122 37.2707 38.4563 37.537C37.5471 38.4346 36.2014 38.7354 34.6655 39.0105L34.8141 39.8318C35.6306 39.7084 36.4343 39.5125 37.2157 39.2463Z" fill="#2F2E41"/>
<path d="M44.6269 24.8168L40.1605 25.4899L40.2861 26.3149L44.7525 25.6419L44.6269 24.8168Z" fill="#2F2E41"/>
<path d="M30.5289 26.9408L26.0625 27.6138L26.1881 28.4389L30.6545 27.7659L30.5289 26.9408Z" fill="#2F2E41"/>
<path d="M39.2403 125.957C38.4711 125.956 37.7207 125.721 37.0888 125.284C36.4569 124.848 35.9736 124.23 35.7031 123.514L20.9566 84.2183C19.1542 79.3989 19.3467 74.0649 21.4918 69.3865C23.6369 64.7082 27.5595 61.0676 32.3989 59.2634L44.3895 54.8083C44.8532 54.6349 45.3467 54.5544 45.8417 54.5715C46.3368 54.5886 46.8235 54.7029 47.274 54.9079C47.7233 55.1077 48.1282 55.3946 48.4648 55.7518C48.8015 56.109 49.0632 56.5295 49.2347 56.9885L76.5513 108.308C76.7286 108.771 76.8123 109.264 76.7974 109.759C76.7824 110.254 76.6693 110.742 76.4644 111.193C76.2595 111.644 75.9669 112.051 75.6035 112.389C75.2401 112.728 74.813 112.991 74.3468 113.165L40.5593 125.719C40.1376 125.876 39.6908 125.957 39.2403 125.957Z" fill="#2F2E41"/>
<path d="M40.7516 56.1599L67.8553 92.2244L49.5154 56.5384C49.3639 56.122 49.1315 55.7394 48.8314 55.4124C48.5313 55.0854 48.1694 54.8205 47.7664 54.6327C47.3633 54.4449 46.9271 54.3379 46.4825 54.318C46.0379 54.298 45.5937 54.3653 45.1753 54.5162L40.7516 56.1599Z" fill="#E6E6E6"/>
<path d="M83.6669 83.5487L35.2732 80.4469C34.5104 80.3981 33.7647 80.2001 33.0788 79.8645C32.3929 79.5289 31.7801 79.0621 31.2754 78.4909C30.7708 77.9196 30.3842 77.255 30.1377 76.5351C29.8911 75.8151 29.7895 75.0539 29.8387 74.2949C29.8878 73.5359 30.0867 72.7939 30.424 72.1114C30.7613 71.4289 31.2304 70.8192 31.8045 70.317C32.3787 69.8149 33.0466 69.4302 33.7701 69.1849C34.4936 68.9396 35.2586 68.8385 36.0214 68.8874L84.4152 71.9889C84.7725 72.0118 85.1217 72.1045 85.4429 72.2616C85.7642 72.4188 86.0512 72.6374 86.2875 72.9049C86.5238 73.1724 86.7049 73.4837 86.8203 73.8208C86.9358 74.158 86.9834 74.5145 86.9604 74.8699L86.5626 81.0163C86.516 81.7342 86.1849 82.4043 85.6418 82.8792C85.0988 83.3541 84.3884 83.5949 83.6669 83.5487Z" fill="#6C63FF"/>
<path d="M70.7354 85.5372C70.6716 85.5372 70.6075 85.5351 70.5433 85.531L30.8049 82.9841C30.4202 82.9595 30.0441 82.8597 29.6982 82.6905C29.3522 82.5212 29.0431 82.2858 28.7886 81.9977C28.5341 81.7096 28.3391 81.3744 28.2148 81.0113C28.0904 80.6482 28.0392 80.2643 28.064 79.8815L28.7436 69.3833C28.7683 69.0005 28.8687 68.6263 29.0388 68.282C29.2089 67.9378 29.4455 67.6303 29.7351 67.3771C30.0247 67.1238 30.3616 66.9298 30.7265 66.8061C31.0914 66.6825 31.4773 66.6315 31.862 66.6562L71.6002 69.2029C72.3768 69.2536 73.1015 69.6087 73.6153 70.1903C74.1292 70.772 74.3901 71.5327 74.341 72.3055L73.6615 82.804C73.6241 83.3665 73.4243 83.9063 73.0861 84.3587C72.7479 84.811 72.2857 85.1566 71.755 85.354C71.4289 85.4753 71.0836 85.5374 70.7354 85.5372Z" fill="#2F2E41"/>
<path d="M24.8609 19.5878C27.6746 17.1799 31.5385 19.3339 34.7652 18.9568C37.8523 18.5961 40.2899 15.8407 40.9126 12.9135C41.6391 9.49839 39.8577 6.07696 37.2319 3.9477C34.3561 1.61565 30.542 0.946168 26.9277 1.37762C22.7853 1.8721 18.9968 3.79345 15.5975 6.11742C12.3163 8.29113 9.29886 10.8353 6.60542 13.6992C4.19356 16.3497 2.15009 19.509 1.49755 23.0756C0.904559 26.3169 1.35736 29.9087 3.28304 32.6546C4.30418 34.0619 5.6726 35.1837 7.25627 35.9116C8.90752 36.7184 10.6689 37.2952 12.2687 38.2074C14.6875 39.5867 17.0384 42.4466 16.2807 45.4228C16.1183 46.0729 15.7977 46.6733 15.3472 47.1712C14.806 47.7691 13.8296 46.979 14.3723 46.3796C15.3255 45.3267 15.2879 43.9226 14.78 42.6656C14.176 41.2491 13.1064 40.0788 11.7465 39.3464C10.0719 38.3937 8.2231 37.8057 6.5068 36.9379C4.86402 36.1453 3.43802 34.9694 2.3502 33.5104C0.296014 30.6699 -0.318437 26.9732 0.147437 23.5534C0.651584 19.8527 2.56248 16.4899 4.95793 13.6718C7.56484 10.605 10.7671 8.00899 14.0384 5.67683C17.5486 3.17441 21.4267 1.05878 25.718 0.293597C29.4379 -0.369702 33.47 0.0386664 36.7229 2.05578C39.7593 3.93863 42.0877 7.1775 42.3193 10.7966C42.4024 12.4433 42.0431 14.0823 41.2782 15.5449C40.5134 17.0075 39.3707 18.241 37.9677 19.1182C36.5282 19.9754 34.8544 20.3613 33.1827 20.2213C31.3955 20.1074 29.6066 19.5629 27.8079 19.7141C26.994 19.7632 26.2184 20.075 25.5986 20.6023C24.9839 21.1284 24.2512 20.1095 24.8609 19.5878Z" fill="#2F2E41"/>
</svg>
