<svg xmlns="http://www.w3.org/2000/svg" width="232" height="255" fill="none" viewBox="0 0 232 255"><path fill="#A0616A" d="M90.566 251.458h-5.88l-2.799-22.629h8.68v22.629Z"/><path fill="#2F2E41" d="M70.416 251.325c-.183.308-.28 1.301-.28 1.659 0 1.099.894 1.991 1.997 1.991h18.213a1.36 1.36 0 0 0 1.362-1.358v-.757s.901-2.273-.954-5.075c0 0-2.305 2.194-5.75-1.243l-1.016-1.836-7.354 5.365-4.076.501c-.892.109-1.683-.017-2.142.753Z"/><path fill="#A0616A" d="M64.215 251.458h-5.88l-2.799-22.629h8.68v22.629Z"/><path fill="#2F2E41" d="M44.066 251.325c-.184.308-.28 1.301-.28 1.659 0 1.099.893 1.991 1.996 1.991h18.213a1.36 1.36 0 0 0 1.362-1.358v-.757s.901-2.273-.954-5.075c0 0-2.305 2.194-5.75-1.243l-1.016-1.836-7.354 5.365-4.076.501c-.892.109-1.683-.017-2.141.753Zm47.005-141.836 5.476 13.996-4.278 111.802H80.291l-10.78-100.878-2.566 101.22-11.636-.342-12.662-112.314 8.385-10.071 40.04-3.413Z"/><path fill="#E6E6E6" d="m65.234 30.118 14.373-1.024 4.449 7.169 13.346 3.755-4.962 34.65 5.305 51.719s-19.165-2.731-20.534 2.731c-1.368 5.462-34.906-5.462-34.906-5.462l11.464-35.333-1.026-27.652-3.08-16.045 14.03-6.486 1.54-8.022Z"/><path fill="#E6E6E6" d="M58.731 40.359s-11.453-.17-12.998 4.609c-1.546 4.779-6.68 37.893-6.68 37.893L35.119 97.37l17.625-8.706-3.765-5.794 12.32-23.564-2.567-18.947Z"/><path fill="#7C3AED" d="M65.738 93.444c1.894.002 3.655-1.087 4.391-2.828.557-1.316.504-2.579.088-3.662.134-.055.267-.113.404-.162a11.657 11.657 0 0 1-.593-.266 4.787 4.787 0 0 0-3.548-2.58 11.542 11.542 0 0 1-3.128-7.865c-.026-6.266 5.07-11.5 11.35-11.651l.149-.003c2.812-.032 5.363 1.537 6.788 3.956a4.784 4.784 0 0 0 4.128 2.359 4.77 4.77 0 0 0 3.432-1.45c1.893-1.948 4.264-3.397 6.947-3.841a25.557 25.557 0 0 1 5.451-.31c12.772.633 23.76 11.925 24.033 24.678.303 14.205-11.149 25.814-25.319 25.814a25.273 25.273 0 0 1-18.634-8.162 10.66 10.66 0 0 0-7.966-3.445l-.093.001c-4.914 0-8.898-3.974-8.898-8.876 0-.272.014-.54.04-.806.047-.496.48-.902.978-.901Z"/><path fill="#F2F2F2" d="M231.255 187.968c-.621-1.045-3.311.074-3.805-.875-.493-.945 2.006-2.386 3.434-5.677.257-.593 1.879-4.333.678-5.487-2.276-2.188-12.693 6.839-16.338 3.885-.8-.648-1.359-1.942-3.78-4.044-.964-.836-1.546-1.213-2.11-1.073-.8.2-.863 1.268-1.721 3.367-1.286 3.149-2.047 2.959-2.796 5.471-.556 1.865-.429 2.949-1.084 3.161-.926.299-1.779-1.68-2.953-1.502-1.198.18-1.923 2.484-2.151 4.208-.43 3.236.762 5.371 1.422 7.617.718 2.44 1.143 6.151-.514 11.404l-16.402 46.1c3.621-9.46 14.106-35.391 18.512-45.027 1.271-2.781 2.676-5.603 5.559-6.717 2.776-1.072 6.589-.432 11.449-1.6.568-.136 2.143-.536 2.342-1.46.164-.764-.763-1.191-.621-1.906.191-.96 2.013-.972 4.253-2.08 1.578-.781 2.562-1.709 3.408-2.508.255-.241 4.046-3.865 3.218-5.257Z"/><path fill="#F2F2F2" d="M166.725 212.237c-.694.003-.919 1.643-1.529 1.611-.607-.032-.595-1.671-1.802-3.319-.218-.298-1.59-2.171-2.504-1.916-1.733.483-.297 8.188-2.803 9.12-.55.205-1.348.105-3.08.684-.689.231-1.043.407-1.137.724-.132.449.375.788 1.16 1.814 1.178 1.538.865 1.856 1.885 2.947.757.811 1.327 1.062 1.243 1.443-.121.54-1.34.387-1.592 1.012-.256.639.668 1.658 1.45 2.268 1.469 1.144 2.863 1.177 4.158 1.501 1.408.353 3.357 1.215 5.463 3.542L185.586 255c-3.609-4.502-13.342-17.118-16.812-22.055-1.002-1.425-1.985-2.927-1.701-4.66.274-1.668 1.689-3.35 2.516-6.067.097-.317.355-1.204-.043-1.568-.328-.301-.806.03-1.117-.246-.417-.371.103-1.266.204-2.682.071-.998-.102-1.748-.251-2.392-.044-.195-.734-3.096-1.657-3.093Zm13.841 3.1-.418-3.723.191-.282c.884-1.305 1.335-2.579 1.34-3.789.001-.192-.008-.384-.017-.58-.036-.777-.081-1.742.423-2.867.283-.627 1.078-2.08 2.272-1.9.322.045.565.192.75.365l.085-.133c.372-.566.666-.809.95-1.043.218-.179.443-.365.797-.803.154-.192.275-.361.377-.503.309-.43.713-.942 1.424-.933.761.036 1.159.663 1.423 1.078a8.96 8.96 0 0 1 .826 1.629c.051.129.11.275.14.32.245.359 2.237.023 2.987-.099 1.686-.281 3.144-.523 3.745.537.431.759.111 1.762-.979 3.061-.34.405-.701.712-1.022.953.266.158.504.401.6.782.227.902-.55 1.806-2.31 2.69-.437.221-1.025.516-1.849.658a7.227 7.227 0 0 1-1.037.092 1.241 1.241 0 0 1-.152.552c-.309.566-.953.835-1.922.771-1.067-.056-1.945-.259-2.72-.437-.677-.155-1.259-.286-1.717-.255-.849.068-1.503.746-2.27 1.625l-1.917 2.234Zm1.94-22.163-3.504 1.347-.322-.113c-1.489-.521-2.839-.633-4.014-.331-.186.048-.371.105-.558.164-.744.231-1.669.52-2.888.318-.68-.114-2.289-.512-2.418-1.71a1.35 1.35 0 0 1 .163-.816l-.15-.048a4.122 4.122 0 0 1-1.252-.653c-.23-.165-.466-.335-.981-.565-.226-.1-.42-.174-.584-.236-.495-.189-1.094-.449-1.266-1.138-.158-.743.35-1.286.685-1.646a8.93 8.93 0 0 1 1.37-1.21c.112-.083.239-.176.275-.216.286-.328-.545-2.165-.854-2.858-.699-1.555-1.305-2.901-.429-3.75.626-.608 1.68-.553 3.217.169a6.12 6.12 0 0 1 1.183.744 1.24 1.24 0 0 1 .606-.777c.817-.448 1.891.073 3.195 1.546.325.366.76.859 1.107 1.618.163.358.267.691.351.977a1.24 1.24 0 0 1 .574.007c.628.155 1.052.707 1.235 1.659.217 1.043.243 1.942.267 2.735.021.692.042 1.288.188 1.722.281.801 1.104 1.26 2.151 1.778l2.653 1.283Zm-1.94-10.967-.418-3.722.191-.282c.884-1.305 1.335-2.58 1.34-3.789.001-.193-.008-.385-.017-.581-.036-.776-.081-1.741.423-2.867.283-.627 1.078-2.079 2.272-1.899.322.044.565.192.75.364l.085-.133c.372-.566.666-.808.95-1.042.218-.18.443-.365.797-.804.154-.192.275-.361.377-.503.309-.429.713-.942 1.424-.933.761.036 1.159.664 1.423 1.079.471.74.685 1.274.826 1.628.051.13.11.275.14.32.245.36 2.237.024 2.987-.099 1.686-.28 3.144-.523 3.745.538.431.758.111 1.761-.979 3.061-.34.404-.701.711-1.022.952.266.158.504.401.6.782.227.902-.55 1.807-2.31 2.691-.437.221-1.025.516-1.849.658a7.36 7.36 0 0 1-1.037.091c-.007.173-.047.36-.152.552-.309.566-.953.836-1.922.771-1.067-.056-1.945-.259-2.72-.437-.677-.154-1.259-.285-1.717-.255-.849.069-1.503.746-2.27 1.625l-1.917 2.234Z"/><path fill="#F2F2F2" d="m184.384 254.462-.782-.489-.911.105c-.015-.085-.064-.279-.139-.583-.408-1.664-1.652-6.729-2.69-14.706a149.725 149.725 0 0 1-1.219-17.018c-.085-5.733.187-10.074.405-13.563.165-2.631.365-5.137.562-7.578.522-6.52 1.015-12.68.648-19.499-.081-1.523-.251-4.692-2.107-8.063-1.076-1.956-2.559-3.692-4.408-5.159l1.15-1.442c2.04 1.622 3.681 3.545 4.876 5.716 2.058 3.739 2.243 7.192 2.333 8.851.373 6.939-.126 13.158-.654 19.742-.194 2.432-.394 4.927-.558 7.547-.216 3.457-.486 7.76-.402 13.42.083 5.656.488 11.311 1.203 16.809 1.025 7.876 2.251 12.865 2.654 14.505.214.875.259 1.058.039 1.405Z"/><path fill="#F2F2F2" d="M170.359 170.833c-.075 0-.152-.001-.229-.007-1.572-.084-3.027-1.023-4.326-2.788-.609-.83-.92-1.777-1.542-3.666-.096-.291-.565-1.769-.85-3.802-.186-1.328-.163-1.883.101-2.374.293-.546.767-.928 1.3-1.185a1.045 1.045 0 0 1 .072-.542c.315-.768 1.151-.667 1.603-.619.229.029.514.067.823.051.484-.024.745-.167 1.139-.383.378-.207.847-.464 1.543-.606 1.373-.286 2.524.103 2.903.23 1.996.663 2.979 2.211 4.118 4.003a14.009 14.009 0 0 1 1.521 3.462c.371 1.294.319 1.869.207 2.297-.227.879-.763 1.382-2.124 2.493-1.422 1.163-2.135 1.745-2.748 2.099-1.426.822-2.322 1.337-3.511 1.337Z"/><path fill="#7C3AED" d="M107.84 85.933 22.627 69.888l-.342 6.145 84.528 20.142 1.027-10.242Z"/><path fill="#7C3AED" d="m23.654 70.913-1.027-1.025s-4.449-2.048-4.449-2.39c0-.213-6.569-2.433-11.484-4.064-2.745-.91-5.644.892-6.035 3.751l-.616 4.506c-.368 2.694 1.67 5.12 4.393 5.228l12.031.48 5.818-1.366 1.369-5.12Z"/><path fill="#3F3D56" d="m107.669 87.811.203-.85-85.267-16.262-.149 1.067 85.213 16.045Zm-.195 1.615.195-.932-85.157-16.112-.056 1.091 85.018 15.953Zm-.196 1.935.049-1.502-84.882-16.251.011.89 84.822 16.863Zm-.227 2.248-.066-1.36-84.663-17.416-.073.334 84.802 18.442Zm-.002 1.363-.064-1.016-84.536-18.56-.076.333 84.676 19.243Zm-48.964-56.79 4.24-2.342 1.839 37.462-.641 4.609s-10.705-29.445-5.438-39.729Z"/><path fill="#A0616A" d="M72.591 26.533c5.86 0 10.61-4.738 10.61-10.583 0-5.844-4.75-10.583-10.61-10.583-5.859 0-10.608 4.739-10.608 10.583 0 5.845 4.75 10.583 10.608 10.583Z"/><path fill="#2F2E41" d="m63.523 22.266 2.536 2.02L63.18 13.39s8.042-.17 8.727-4.609c0 0 6.331-.17 8.042-.17 1.711 0 2.483 11.294 2.483 11.294s3.335-9.246-.087-14.025c-3.422-4.78-2.225-1.878-2.91-3.585C78.752.588 71.736-.982 67.288.76c-4.449 1.74-4.62 4.221-5.989 4.244-1.369.023-6.16 6.85-1.71 12.313 4.448 5.462 3.935 4.95 3.935 4.95Z"/><path fill="#A0616A" d="M95.933 91.713c1.258-1.001 2.184-2.203 2.706-3.39l12.583-8.78-4.363-5.85-12.294 9.536c-1.277.244-2.656.879-3.914 1.88-2.873 2.286-4.019 5.618-2.56 7.442 1.458 1.823 4.97 1.448 7.842-.838ZM47.727 78.358c-.933 1.307-1.492 2.716-1.667 4l-9.677 11.894 5.808 4.428 9.19-12.542c1.16-.585 2.312-1.573 3.245-2.88 2.132-2.987 2.315-6.505.41-7.858-1.905-1.353-5.177-.029-7.309 2.958Z"/><path fill="#E6E6E6" d="M91.927 42.237s3.08-5.121 6.16-2.049c2.437 2.431 15.803 17.902 21.275 24.253a9.638 9.638 0 0 1 2.338 6.293 9.653 9.653 0 0 1-5.14 8.529l-17.104 9.06-4.791-7.169 14.715-10.583-22.587-12.29 5.134-16.044ZM37.843 89.426l-2.725 7.944 7.871 4.096 5.99-4.096 3.764-8.706-11.123-3.243"/><path fill="#7C3AED" d="m165.092 13.29-25.854 7.005 3.761 16.735a7.62 7.62 0 0 0-4.254-1.29c-4.223 0-7.646 3.415-7.646 7.627 0 4.213 3.423 7.627 7.646 7.627s7.646-3.414 7.646-7.627a7.566 7.566 0 0 0-1.138-3.988l-2.982-13.268 22.304-6.995 2.04 9.883a7.626 7.626 0 0 0-4.295-1.317c-4.223 0-7.646 3.415-7.646 7.627s3.423 7.627 7.646 7.627 7.646-3.415 7.646-7.627a7.57 7.57 0 0 0-1.161-4.026l-3.713-17.993Zm25.355 15.643c-4.179 0-7.566 3.38-7.566 7.548 0 1.179.278 2.29.761 3.283l4.319 17.77 2.451-.592-3.331-13.709a7.535 7.535 0 0 0 3.366.796c4.179 0 7.567-3.38 7.567-7.548s-3.388-7.548-7.567-7.548Zm30.792 39.166-4.287-17.105-2.602.61 3.353 13.38a8.213 8.213 0 0 0-3.391-.734c-4.437 0-8.034 3.479-8.034 7.77 0 4.291 3.597 7.77 8.034 7.77 4.437 0 8.034-3.479 8.034-7.77a7.53 7.53 0 0 0-1.107-3.921Z"/></svg>