<svg xmlns="http://www.w3.org/2000/svg" width="30" height="30" fill="none" viewBox="0 0 30 30"><path fill="#fff" d="M8.788.105C7.192.18 6.102.435 5.149.809a7.34 7.34 0 0 0-2.653 1.735A7.348 7.348 0 0 0 .77 5.203C.401 6.157.15 7.248.08 8.845c-.07 1.597-.086 2.11-.078 6.184.008 4.073.026 4.584.103 6.184.076 1.596.33 2.685.705 3.639.385.986.9 1.821 1.735 2.653a7.34 7.34 0 0 0 2.66 1.725c.954.369 2.045.62 3.642.69 1.597.07 2.11.086 6.183.078 4.072-.007 4.585-.025 6.185-.101 1.6-.076 2.683-.332 3.637-.704a7.352 7.352 0 0 0 2.653-1.736 7.351 7.351 0 0 0 1.725-2.66c.37-.954.62-2.045.69-3.64.07-1.602.086-2.113.078-6.186-.007-4.073-.026-4.583-.102-6.183-.076-1.6-.33-2.686-.704-3.64a7.364 7.364 0 0 0-1.734-2.653 7.32 7.32 0 0 0-2.66-1.724C23.843.4 22.752.15 21.156.08c-1.597-.07-2.11-.087-6.184-.08-4.074.009-4.584.026-6.184.104Zm.175 27.117c-1.462-.064-2.257-.307-2.786-.51a4.67 4.67 0 0 1-1.727-1.12 4.62 4.62 0 0 1-1.125-1.722c-.206-.529-.453-1.322-.522-2.785-.074-1.58-.09-2.055-.098-6.06-.009-4.005.006-4.479.076-6.06.062-1.461.307-2.256.51-2.785.27-.702.595-1.2 1.118-1.727a4.63 4.63 0 0 1 1.723-1.125c.529-.207 1.322-.452 2.784-.522 1.582-.075 2.056-.09 6.06-.099 4.004-.008 4.48.007 6.062.076 1.461.064 2.256.306 2.785.51.701.27 1.2.595 1.727 1.119a4.629 4.629 0 0 1 1.126 1.724c.206.527.452 1.32.52 2.782.076 1.582.093 2.057.1 6.06.008 4.004-.007 4.48-.076 6.06-.064 1.463-.306 2.257-.51 2.787-.27.7-.595 1.2-1.12 1.727a4.633 4.633 0 0 1-1.722 1.125c-.528.206-1.322.452-2.783.522-1.582.074-2.056.09-6.062.098-4.005.01-4.478-.007-6.06-.075M21.192 6.983a1.8 1.8 0 1 0 3.6-.006 1.8 1.8 0 0 0-3.6.006ZM7.298 15.015a7.703 7.703 0 1 0 15.403-.032 7.703 7.703 0 0 0-15.403.032ZM10 15.01a5 5 0 1 1 10-.02 5 5 0 0 1-10 .02Z"/></svg>