<svg xmlns="http://www.w3.org/2000/svg" width="30" height="30" fill="none" viewBox="0 0 30 30"><path fill="#fff" d="M25.559 25.565h-4.443v-6.961c0-1.66-.033-3.796-2.315-3.796-2.316 0-2.67 1.806-2.67 3.673v7.084H11.69V11.25h4.267v1.951h.058c.596-1.125 2.046-2.312 4.212-2.312 4.502 0 5.334 2.962 5.334 6.819l-.001 7.857ZM6.67 9.291A2.577 2.577 0 0 1 4.093 6.71a2.58 2.58 0 1 1 2.579 2.581ZM8.9 25.565H4.444V11.25h4.455v14.315ZM27.78 0H2.214C.99 0 0 .968 0 2.161V27.84C0 29.034.99 30 2.214 30h25.564C29 30 30 29.034 30 27.839V2.16C30 .967 29 0 27.778 0h.003Z"/></svg>